<?xml version="1.0" encoding="iso-8859-1"?>
<!-- Generator: Adobe Illustrator 19.0.0, SVG Export Plug-In . SVG Version: 6.00 Build 0)  -->
<svg version="1.1" id="Layer_1" xmlns="http://www.w3.org/2000/svg" xmlns:xlink="http://www.w3.org/1999/xlink" x="0px" y="0px"
	 viewBox="0 0 512 512" style="enable-background:new 0 0 512 512;" xml:space="preserve">
<path style="fill:#EAB03D;" d="M481.784,256c0,116.27-88.109,211.969-201.21,223.944c-7.882,0.83-15.882,1.263-23.986,1.263
	C132.214,481.207,31.381,380.374,31.381,256S132.214,30.804,256.588,30.804c8.105,0,16.104,0.433,23.986,1.263
	C393.675,44.042,481.784,139.729,481.784,256z"/>
<path style="fill:#FCC447;" d="M481.784,256c0,116.27-88.109,211.969-201.21,223.944C167.473,467.969,79.353,372.27,79.353,256
	S167.473,44.042,280.574,32.067C393.675,44.042,481.784,139.729,481.784,256z"/>
<circle style="fill:#EAB03D;" cx="256.585" cy="256.001" r="120.457"/>
<path style="fill:#CCCCCC;" d="M255.255,227.452c-2.585,0.854-5.298,1.485-8.093,1.883c-25.623,3.684-49.27-13.239-54.545-49.902
	c-5.274-36.675,10.35-75.478,35.973-79.162c6.409-0.924,12.853,0.444,18.969,3.59c18.338,9.403,33.903,34.734,37.856,62.217
	C290.117,198.742,276.423,220.482,255.255,227.452z"/>
<path style="fill:#F2F2F2;" d="M255.255,227.452c-16.513-5.742-29.635-21.858-33.4-48.019c-4.526-31.471,6.339-64.509,25.705-75.572
	c18.338,9.403,33.903,34.734,37.856,62.217C290.117,198.742,276.423,220.482,255.255,227.452z"/>
<path style="fill:#CCCCCC;" d="M395.991,311.281c-4.818,11.613-17.098,18.887-32.371,21.659
	c-16.151,2.947-35.646,0.854-53.235-6.456c-34.207-14.209-44.744-41.306-34.816-65.222c8.689-20.922,30.173-32.465,58.346-25.495
	c4.011,0.982,8.163,2.351,12.432,4.128C380.553,254.105,405.919,287.365,395.991,311.281z"/>
<path style="fill:#F2F2F2;" d="M395.991,311.281c-4.818,11.613-17.098,18.887-32.371,21.659c-7.684-1.228-15.425-3.38-22.828-6.456
	c-34.207-14.209-44.744-41.306-34.816-65.222c5.193-12.49,14.934-21.635,27.939-25.495c4.011,0.982,8.163,2.351,12.432,4.128
	C380.553,254.105,405.919,287.365,395.991,311.281z"/>
<path style="fill:#CCCCCC;" d="M227.503,339.068c-11.332,9.59-24.746,16.513-37.821,20.092c-19.542,5.368-38.347,3.263-48.37-8.584
	c-16.712-19.764-2.643-59.164,25.647-83.08c20.595-17.425,41.528-20.56,57.843-13.332c6.081,2.69,11.531,6.83,16.069,12.198
	C257.594,286.125,255.781,315.152,227.503,339.068z"/>
<path style="fill:#F2F2F2;" d="M227.503,339.068c-11.332,9.59-24.746,16.513-37.821,20.092c-4.877-1.871-9.099-4.713-12.373-8.584
	c-16.724-19.764-2.643-59.164,25.635-83.08c7.321-6.187,14.677-10.584,21.858-13.332c6.081,2.69,11.531,6.83,16.069,12.198
	C257.594,286.125,255.781,315.152,227.503,339.068z"/>
<path d="M308.402,137.838c-4.427-1.965-9.61,0.029-11.576,4.457c-1.966,4.428,0.029,9.61,4.457,11.576
	c31.363,13.929,54.977,42.079,63.166,75.305c0.986,3.998,4.568,6.674,8.509,6.674c0.695,0,1.401-0.083,2.106-0.257
	c4.702-1.159,7.577-5.912,6.417-10.615C372.004,186.526,344.685,153.95,308.402,137.838z"/>
<path d="M227.961,364.144c-4.685-1.214-9.475,1.607-10.687,6.297c-1.213,4.69,1.607,9.475,6.297,10.687
	c10.538,2.724,21.448,4.105,32.429,4.105c25.896,0,50.883-7.633,72.261-22.075c4.015-2.712,5.07-8.164,2.359-12.178
	c-2.712-4.014-8.164-5.069-12.178-2.359c-18.467,12.475-40.058,19.07-62.441,19.07C246.5,367.691,237.067,366.497,227.961,364.144z"
	/>
<path d="M135.54,264.772c4.844,0,8.771-3.927,8.771-8.771c0-25.763,8.98-50.898,25.285-70.779c3.072-3.746,2.526-9.273-1.219-12.344
	c-3.746-3.072-9.273-2.526-12.344,1.219c-18.872,23.008-29.264,52.096-29.264,81.905
	C126.768,260.845,130.696,264.772,135.54,264.772z"/>
<path d="M212.551,59.719c1.652,2.71,4.539,4.205,7.498,4.205c1.557,0,3.132-0.414,4.557-1.284l71.92-43.853
	c4.135-2.521,5.444-7.919,2.923-12.055c-2.521-4.136-7.919-5.445-12.055-2.923l-71.92,43.853
	C211.338,50.186,210.03,55.583,212.551,59.719z"/>
<path d="M299.449,452.283c-2.521-4.136-7.919-5.446-12.055-2.923l-71.92,43.853c-4.135,2.521-5.444,7.919-2.923,12.055
	c1.652,2.71,4.539,4.205,7.498,4.205c1.557,0,3.132-0.414,4.557-1.284l71.92-43.853C300.661,461.817,301.97,456.42,299.449,452.283z
	"/>
<path d="M282.304,56.695c0.837,4.166,4.498,7.043,8.59,7.043c0.573,0,1.155-0.056,1.739-0.174l82.581-16.61
	c4.749-0.954,7.824-5.58,6.87-10.329s-5.57-7.825-10.329-6.87l-82.581,16.61C284.424,47.322,281.35,51.946,282.304,56.695z"/>
<path d="M229.696,455.306c-0.954-4.748-5.573-7.823-10.329-6.87l-82.581,16.611c-4.749,0.954-7.824,5.58-6.87,10.329
	c0.837,4.166,4.498,7.043,8.59,7.043c0.573,0,1.155-0.056,1.739-0.174l82.581-16.611
	C227.576,464.68,230.651,460.056,229.696,455.306z"/>
<path d="M348.885,77.712c-0.727,4.789,2.567,9.261,7.356,9.987l83.281,12.635c0.446,0.068,0.889,0.101,1.326,0.101
	c4.263,0,8.002-3.113,8.661-7.457c0.727-4.789-2.567-9.261-7.356-9.987l-83.281-12.635
	C354.083,69.625,349.611,72.923,348.885,77.712z"/>
<path d="M153.127,441.646c0.446,0.068,0.889,0.101,1.326,0.101c4.263,0,8.002-3.113,8.661-7.457
	c0.727-4.789-2.567-9.261-7.356-9.987l-22.431-3.403c-4.79-0.733-9.261,2.566-9.987,7.356c-0.727,4.789,2.567,9.261,7.356,9.987
	L153.127,441.646z"/>
<path d="M109.582,417.297l-37.104-5.629c-4.786-0.731-9.26,2.566-9.987,7.356c-0.727,4.789,2.567,9.261,7.356,9.987l37.104,5.629
	c0.446,0.068,0.889,0.101,1.326,0.101c4.263,0,8.002-3.113,8.661-7.457C117.664,422.494,114.371,418.023,109.582,417.297z"/>
<path d="M404.261,120.232c-2.321,4.252-0.755,9.58,3.497,11.901l73.938,40.358c1.334,0.729,2.774,1.074,4.194,1.074
	c3.105,0,6.115-1.654,7.707-4.57c2.321-4.252,0.755-9.58-3.497-11.901l-73.938-40.358
	C411.91,114.414,406.581,115.981,404.261,120.232z"/>
<path d="M100.032,396.34c3.105,0,6.115-1.654,7.707-4.57c2.321-4.252,0.755-9.58-3.497-11.901l-73.938-40.358
	c-4.253-2.321-9.58-0.755-11.901,3.497c-2.321,4.252-0.755,9.58,3.497,11.901l73.938,40.358
	C97.172,395.995,98.612,396.34,100.032,396.34z"/>
<path d="M509.812,243.125l-13.548-15.382c-3.202-3.635-8.744-3.987-12.379-0.785c-3.635,3.202-3.987,8.744-0.785,12.379
	l13.548,15.382c1.734,1.968,4.154,2.974,6.585,2.974c2.059,0,4.127-0.722,5.794-2.189
	C512.662,252.303,513.013,246.761,509.812,243.125z"/>
<path d="M463.391,216.962c1.733,1.969,4.153,2.974,6.585,2.974c2.059,0,4.127-0.722,5.794-2.189
	c3.635-3.202,3.987-8.744,0.785-12.379l-22.42-25.455c-3.202-3.636-8.744-3.987-12.379-0.785c-3.635,3.202-3.987,8.744-0.785,12.379
	L463.391,216.962z"/>
<path d="M64.45,335.063c2.059,0,4.127-0.722,5.794-2.189c3.635-3.201,3.987-8.744,0.785-12.379l-55.676-63.212
	c-3.201-3.635-8.745-3.987-12.379-0.785c-3.635,3.201-3.987,8.744-0.785,12.379l55.676,63.212
	C59.599,334.057,62.019,335.063,64.45,335.063z"/>
<path d="M468.21,252.268c-1.765-4.511-6.853-6.735-11.365-4.971c-4.511,1.766-6.736,6.853-4.971,11.365l30.699,78.442
	c1.354,3.461,4.665,5.577,8.17,5.577c1.063,0,2.144-0.195,3.194-0.606c4.511-1.766,6.736-6.853,4.971-11.365L468.21,252.268z"/>
<path d="M43.79,259.735c1.354,3.461,4.665,5.577,8.17,5.577c1.063,0,2.144-0.195,3.194-0.606c4.511-1.766,6.736-6.853,4.971-11.365
	l-30.699-78.442c-1.766-4.511-6.852-6.735-11.365-4.971c-4.511,1.766-6.736,6.853-4.971,11.365L43.79,259.735z"/>
<path d="M447.71,316.515c-4.843,0.117-8.674,4.136-8.558,8.979l2.019,84.211c0.115,4.771,4.018,8.561,8.765,8.561
	c0.071,0,0.143,0,0.214-0.002c4.843-0.117,8.674-4.136,8.558-8.979l-2.019-84.211C456.572,320.231,452.588,316.41,447.71,316.515z"
	/>
<path d="M64.076,195.489c0.071,0,0.143,0,0.214-0.002c4.843-0.117,8.674-4.136,8.558-8.979l-2.019-84.211
	c-0.117-4.843-4.181-8.664-8.979-8.558c-4.843,0.117-8.674,4.136-8.558,8.979l2.019,84.211
	C55.425,191.7,59.329,195.489,64.076,195.489z"/>
<path d="M415.452,378.434c-4.589-1.547-9.566,0.919-11.112,5.509l-26.905,79.823c-1.547,4.59,0.919,9.566,5.509,11.112
	c0.929,0.313,1.873,0.462,2.802,0.462c3.66,0,7.077-2.311,8.31-5.971l26.905-79.823
	C422.509,384.956,420.042,379.981,415.452,378.434z"/>
<path d="M96.549,133.567c0.929,0.313,1.874,0.462,2.802,0.462c3.66,0,7.077-2.311,8.31-5.971l26.905-79.822
	c1.547-4.59-0.919-9.566-5.509-11.112c-4.588-1.548-9.565,0.919-11.112,5.509L91.04,122.455
	C89.491,127.045,91.958,132.02,96.549,133.567z"/>
<path d="M363.961,425.585c-3.784-3.024-9.303-2.408-12.328,1.378L299.05,492.77c-3.023,3.784-2.408,9.303,1.378,12.327
	c1.616,1.291,3.549,1.919,5.47,1.919c2.575,0,5.126-1.129,6.858-3.297l52.583-65.807
	C368.362,434.129,367.745,428.61,363.961,425.585z"/>
<path d="M148.039,86.416c1.616,1.291,3.549,1.919,5.47,1.919c2.575,0,5.126-1.129,6.858-3.297l52.583-65.807
	c3.023-3.784,2.408-9.303-1.378-12.328c-3.784-3.023-9.303-2.408-12.328,1.378l-52.583,65.807
	C143.638,77.873,144.255,83.392,148.039,86.416z"/>
<path d="M284.642,214.865c8.614-13.215,11.683-30.518,8.874-50.036c-2.328-16.18-8.488-32.258-17.346-45.274
	c-2.726-4.007-8.182-5.043-12.186-2.317c-4.005,2.726-5.043,8.182-2.317,12.186c7.385,10.853,12.53,24.315,14.485,37.904
	c2.193,15.24,0.046,28.366-6.208,37.959c-5.566,8.538-14.078,13.854-24.618,15.371c-10.538,1.513-20.205-1.182-27.952-7.806
	c-8.704-7.441-14.464-19.43-16.657-34.669c-4.719-32.796,9.15-66.441,28.537-69.23c5.125-0.738,10.532,0.622,16.08,4.038
	c4.125,2.54,9.527,1.255,12.068-2.87c2.54-4.125,1.256-9.528-2.87-12.068c-9.007-5.547-18.608-7.783-27.776-6.464
	c-15.277,2.197-28.189,13.697-36.359,32.381c-7.27,16.623-9.837,37.294-7.041,56.712c2.808,19.519,10.629,35.254,22.62,45.505
	c9.514,8.134,21.295,12.418,33.81,12.418c2.651,0,5.338-0.193,8.04-0.581C263.283,235.796,276.358,227.573,284.642,214.865z"/>
<path d="M381.25,327.427c-1.612-4.568-6.623-6.967-11.188-5.354c-15.774,5.563-38.106,4.115-56.898-3.689
	c-14.219-5.905-24.404-14.46-29.452-24.738c-4.494-9.148-4.711-19.182-0.627-29.015c4.084-9.833,11.345-16.761,20.998-20.034
	c10.845-3.677,24.094-2.5,38.312,3.404c30.6,12.709,52.428,41.827,44.916,59.915c-1.858,4.473,0.263,9.606,4.736,11.464
	c4.474,1.858,9.607-0.263,11.464-4.736c5.92-14.254,2.636-31.23-9.245-47.803c-10.572-14.745-27.026-27.517-45.143-35.041
	c-18.211-7.563-35.734-8.883-50.674-3.817c-14.365,4.871-25.575,15.497-31.564,29.919c-5.99,14.423-5.605,29.863,1.083,43.478
	c6.955,14.159,20.258,25.641,38.469,33.204c13.381,5.557,28.026,8.397,41.863,8.397c9.858,0,19.306-1.441,27.597-4.366
	C380.466,337.004,382.862,331.995,381.25,327.427z"/>
<path d="M207.828,241.774c-15.753-0.256-32.066,6.286-47.123,19.022l0,0c-14.979,12.669-26.779,29.834-32.376,47.092
	c-6.289,19.397-4.264,36.569,5.702,48.353c8.046,9.513,20.413,14.504,35.495,14.504c3.6,0,7.356-0.284,11.242-0.86
	c17.947-2.656,36.832-11.446,51.81-24.116c15.056-12.734,24.245-27.713,26.573-43.315c2.24-15.002-2.082-29.831-12.167-41.754
	C236.9,248.776,222.994,242.055,207.828,241.774z M221.251,332.376c-25.298,21.398-61.177,27.491-73.825,12.536
	c-12.649-14.955-0.69-49.325,24.607-70.723l0,0c11.523-9.745,23.535-14.882,34.79-14.882c0.227,0,0.454,0.002,0.681,0.006
	c10.191,0.188,19.212,4.586,26.089,12.716C248.541,289.702,243.697,313.39,221.251,332.376z"/>
<g>
</g>
<g>
</g>
<g>
</g>
<g>
</g>
<g>
</g>
<g>
</g>
<g>
</g>
<g>
</g>
<g>
</g>
<g>
</g>
<g>
</g>
<g>
</g>
<g>
</g>
<g>
</g>
<g>
</g>
</svg>
